<svg width="82" height="82" viewBox="0 0 82 82" fill="none" xmlns="http://www.w3.org/2000/svg">
<path fill-rule="evenodd" clip-rule="evenodd" d="M40.3834 51.6642L49.3169 72.9709L46.4002 50.052L65.4348 63.1465L50.5903 45.4428L50.722 45.4469C51.5196 43.7846 51.8938 41.9503 51.8104 40.1075C51.7988 39.8503 51.7783 39.594 51.7491 39.3391L51.6233 39.2999L51.7363 39.2322C51.5419 37.6702 51.0192 36.1635 50.1989 34.8124C49.9278 34.3659 49.6267 33.9405 49.2982 33.5387L49.1712 33.5738L49.2296 33.4557C48.3925 32.4518 47.3829 31.5991 46.2441 30.94C45.5625 30.5455 44.8438 30.2257 44.1004 29.9841L44.0125 30.0823L43.9979 29.9514C43.0035 29.6388 41.9664 29.4656 40.9163 29.4403C39.8635 29.4148 38.8167 29.5384 37.8061 29.804L37.7852 29.9341L37.7021 29.8318C36.9506 30.0371 36.2198 30.3211 35.5222 30.681C34.3506 31.2855 33.2992 32.0905 32.4135 33.0554L32.4663 33.1761L32.3411 33.135C31.9956 33.5188 31.676 33.9273 31.3851 34.358C30.4991 35.67 29.9038 37.1525 29.6348 38.7061L29.7445 38.7791L29.617 38.8123C29.5761 39.0629 29.5437 39.3153 29.5199 39.5691C29.3474 41.4083 29.6336 43.2612 30.3523 44.962L30.484 44.9642L14.8139 61.9415L34.45 49.7676L30.4462 72.5217L40.3834 51.6642ZM25.7476 44.8874C25.2901 43.2929 25.0908 41.6328 25.1597 39.9704L7.38336 44.5895L25.7476 44.8874ZM25.8015 36.1538C26.2499 34.6611 26.9224 33.239 27.8012 31.9377C27.8552 31.8578 27.9099 31.7784 27.9653 31.6996L10.5136 25.9747L25.8015 36.1538ZM30.5686 28.8358C31.4748 28.0603 32.471 27.389 33.5393 26.8378C33.9506 26.6256 34.3703 26.4324 34.797 26.2585L23.2108 12.0074L30.5686 28.8358ZM38.5353 25.2568C39.3559 25.144 40.187 25.0968 41.0207 25.1169C41.8508 25.1369 42.6751 25.2236 43.4858 25.3747L41.4437 7.12186L38.5353 25.2568ZM47.1723 26.5531C47.5934 26.7486 48.0066 26.9634 48.4103 27.197C49.4476 27.7973 50.4075 28.5134 51.2732 29.3287L59.4234 12.8694L47.1723 26.5531ZM53.7373 32.3131C53.7908 32.3975 53.8436 32.4824 53.8955 32.5679C54.7085 33.907 55.3108 35.3564 55.6867 36.8652L71.4417 27.4251L53.7373 32.3131ZM56.1461 40.708C56.1359 42.3718 55.8578 44.0206 55.325 45.5914L73.6826 46.1677L56.1461 40.708Z" fill="black"/>
</svg>
